<svg width="424" height="424" viewBox="0 0 424 424" fill="none" xmlns="http://www.w3.org/2000/svg">
<path fill-rule="evenodd" clip-rule="evenodd" d="M42 0C18.8041 0 0 18.8042 0 42V382C0 405.196 18.8041 424 42 424H382C405.196 424 424 405.196 424 382V42C424 18.8042 405.196 0 382 0H42ZM104.861 60.8086C96.2142 59.9141 85.1816 58.2739 71.7637 55.8887C78.6217 61.8521 83.9889 67.3687 87.8652 72.4375C91.7416 77.2085 94.8724 81.5317 97.2578 85.4082C99.9414 89.8809 101.73 94.0552 102.625 97.9316C102.923 100.317 103.37 106.579 103.967 116.717C104.861 126.855 105.607 139.08 106.203 153.393C106.799 167.705 107.247 183.21 107.545 199.908C108.141 216.606 108.439 232.559 108.439 247.766C108.738 262.674 108.738 276.092 108.439 288.02C108.141 299.648 107.545 307.848 106.65 312.619C105.458 317.092 103.37 322.31 100.389 328.273C98.0033 333.342 94.5742 339.604 90.1016 347.059C85.9271 354.215 80.2617 362.117 73.1055 370.764C88.3125 368.676 100.985 367.037 111.123 365.844C121.559 364.651 129.759 363.756 135.723 363.16C142.879 362.266 148.544 361.818 152.719 361.818H166.137C174.784 361.818 187.904 362.266 205.496 363.16C200.427 350.041 196.104 338.262 192.525 327.826C189.245 317.39 186.413 308.295 184.027 300.543C181.344 291.598 179.256 283.547 177.766 276.391C176.573 268.936 175.529 259.693 174.635 248.66C174.038 239.119 173.591 227.191 173.293 212.879C173.293 198.268 173.74 180.676 174.635 160.102C183.878 174.712 191.78 187.683 198.34 199.014C205.198 210.344 210.863 219.886 215.336 227.639C220.703 236.882 225.027 245.082 228.307 252.238C232.183 259.693 236.954 268.936 242.619 279.969C247.688 289.51 254.099 301.736 261.852 316.645C269.902 331.255 279.742 348.848 291.371 369.422L331.178 368.527C332.072 356.004 332.818 343.629 333.414 331.404C334.01 318.881 334.607 307.699 335.203 297.859C335.799 286.23 336.098 275.347 336.098 265.209C336.694 251.791 337.29 237.031 337.887 220.93C338.483 204.828 339.079 189.323 339.676 174.414C340.57 159.505 341.316 146.087 341.912 134.16C342.807 121.935 343.85 113.139 345.043 107.771C345.938 103.597 347.727 99.1245 350.41 94.3535C352.796 90.1792 355.926 85.4082 359.803 80.041C363.679 74.6738 368.897 69.0083 375.457 63.0449C364.126 63.9395 354.585 64.6851 346.832 65.2812C339.378 65.5796 333.116 66.0269 328.047 66.623C322.381 67.2192 317.611 67.5176 313.734 67.5176C310.753 67.8159 306.578 67.9648 301.211 67.9648H282.426C274.673 67.9648 264.684 67.8159 252.459 67.5176C259.913 77.6558 265.728 86.75 269.902 94.8008C274.077 102.553 277.357 109.262 279.742 114.928C282.426 121.488 284.215 127.302 285.109 132.371C285.706 136.545 286.004 142.807 286.004 151.156C286.004 159.505 285.855 168.749 285.557 178.887C285.557 188.727 285.258 199.014 284.662 209.748C284.364 220.184 284.066 229.875 283.768 238.82C283.469 247.467 283.171 254.773 282.873 260.736C282.575 266.402 282.426 269.383 282.426 269.682C282.426 270.278 281.084 266.998 278.4 259.842C275.717 252.686 272.288 243.591 268.113 232.559C264.237 221.526 259.913 209.748 255.143 197.225C250.372 184.701 245.899 173.221 241.725 162.785C238.146 154.436 234.27 145.043 230.096 134.607C226.518 125.96 222.045 115.524 216.678 103.299C211.609 91.0737 205.943 77.6558 199.682 63.0449C188.649 63.0449 179.406 63.1938 171.951 63.4922H154.061H140.643C137.064 63.7905 132.145 63.6411 125.883 63.0449C120.516 62.4487 113.508 61.7031 104.861 60.8086Z" fill="#ABE0FF"/>
</svg>
